<?xml version="1.0" standalone="yes"?>
<svg xmlns="http://www.w3.org/2000/svg" width="600" height="900">
<path style="fill:#ff6a61; stroke:none;" d="M0 0L0 900L600 900L600 0L0 0z"/>
<path style="fill:#282727; stroke:none;" d="M229 338L229 518L300 518C316.255 518 334.06 518.678 349 511.19C374.516 498.401 385.771 462.68 370.532 438C365.475 429.81 358.018 425.684 350 421C380.116 406.69 376.835 360.226 349 345.324C334.333 337.472 316.141 338 300 338L229 338z"/>
<path style="fill:#ff6a61; stroke:none;" d="M264 369L264 409L300 409C308.465 409 317.023 409.458 324.999 406.045C336.302 401.208 339.183 382.843 329.671 374.638C324.841 370.471 317.982 370.391 312 369.576C296.403 367.453 279.736 369 264 369M265 439L265 487C280.536 487 296.573 488.13 312 486.285C317.491 485.629 322.966 485.676 327.985 482.951C341.601 475.557 343.236 451.633 329.996 443.133C322.898 438.577 314.074 439 306 439L265 439z"/>
</svg>
