<?xml version="1.0" standalone="yes"?>
<svg xmlns="http://www.w3.org/2000/svg" width="600" height="900">
<path style="fill:#e8ecef; stroke:none;" d="M0 0L0 900L600 900L600 0L0 0z"/>
<path style="fill:#819dfe; stroke:none;" d="M279.667 264.333C279.222 264.778 280.278 264.722 280.333 264.667C280.778 264.222 279.722 264.278 279.667 264.333z"/>
<path style="fill:#424242; stroke:none;" d="M281 264.424C240.691 269.719 204.503 280.378 171 304.428C150.438 319.189 133.308 337.997 119.333 359C106.91 377.671 97.996 398.388 92.1512 420C63.1845 527.107 128.382 641.842 231 680.575C263.811 692.959 299.401 696.378 334 691.718C364.107 687.662 393.627 677.157 419 660.333C480.231 619.732 520.009 547.449 514.911 473C508.152 374.302 430.635 284.134 332 267.586C315.538 264.825 297.681 262.233 281 264.424z"/>
<path style="fill:#819dfe; stroke:none;" d="M307 264C309.052 264.874 310.747 264.953 313 265C310.948 264.126 309.253 264.047 307 264M267 265C268.506 265.683 269.315 265.826 271 266C269.494 265.317 268.685 265.174 267 265z"/>
<path style="fill:#bb6355; stroke:none;" d="M317.667 265.333C317.222 265.778 318.278 265.722 318.333 265.667C318.778 265.222 317.722 265.278 317.667 265.333z"/>
<path style="fill:#819dfe; stroke:none;" d="M319.667 265.333C319.222 265.778 320.278 265.722 320.333 265.667C320.778 265.222 319.722 265.278 319.667 265.333M261.667 266.333C261.222 266.778 262.278 266.722 262.333 266.667C262.778 266.222 261.722 266.278 261.667 266.333z"/>
<path style="fill:#bb6355; stroke:none;" d="M325 266C326.248 266.685 326.548 266.749 328 267C326.752 266.315 326.452 266.251 325 266z"/>
<path style="fill:#819dfe; stroke:none;" d="M255 267C256.248 267.685 256.548 267.749 258 268C256.752 267.315 256.452 267.251 255 267M331 267C332.506 267.683 333.315 267.826 335 268C333.494 267.317 332.685 267.174 331 267z"/>
<path style="fill:#bb6355; stroke:none;" d="M251.667 268.333C251.222 268.778 252.278 268.722 252.333 268.667C252.778 268.222 251.722 268.278 251.667 268.333z"/>
<path style="fill:#819dfe; stroke:none;" d="M337.667 268.333C337.222 268.778 338.278 268.722 338.333 268.667C338.778 268.222 337.722 268.278 337.667 268.333M246.667 269.333C246.222 269.778 247.278 269.722 247.333 269.667C247.778 269.222 246.722 269.278 246.667 269.333M342.667 269.333C342.222 269.778 343.278 269.722 343.333 269.667C343.778 269.222 342.722 269.278 342.667 269.333M242.667 270.333C242.222 270.778 243.278 270.722 243.333 270.667C243.778 270.222 242.722 270.278 242.667 270.333M346.667 270.333C346.222 270.778 347.278 270.722 347.333 270.667C347.778 270.222 346.722 270.278 346.667 270.333M238.667 271.333C238.222 271.778 239.278 271.722 239.333 271.667C239.778 271.222 238.722 271.278 238.667 271.333M350 271L351 272L350 271M235 272L236 273L235 272z"/>
<path style="fill:#bb6355; stroke:none;" d="M236 272L237 273L236 272M353 272L354 273L353 272z"/>
<path style="fill:#819dfe; stroke:none;" d="M354 272L355 273L354 272M232 273L233 274L232 273M357 273L358 274L357 273M229 274L230 275L229 274M360 274L361 275L360 274M226 275L227 276L226 275M363 275L364 276L363 275M223 276L224 277L223 276M366 276L367 277L366 276M220 277L221 278L220 277M369 277L370 278L369 277M218 278L219 279L218 278M371 278L372 279L371 278M215 279L216 280L215 279M374 279L375 280L374 279M213 280L214 281L213 280M376 280L377 281L376 280z"/>
<path style="fill:#bb6355; stroke:none;" d="M211 281L212 282L211 281M279 281.424C254.124 284.731 230.638 289.951 208 301.27C159.68 325.43 120.724 372.201 107.898 425C97.727 466.869 100.814 511.278 117.873 551C144.089 612.045 202.793 660.267 268 672.46C284.426 675.531 302.27 677.884 319 675.711C343.526 672.525 367.674 667.194 390 656.031C451.449 625.306 490.372 564.824 496.83 497C506.234 398.25 427.805 304.321 333 284.996C315.715 281.473 296.638 279.08 279 281.424M378 281L379 282L378 281z"/>
<path style="fill:#819dfe; stroke:none;" d="M208 282L209 283L208 282M381 282L382 283L381 282M206 283L207 284L206 283M383 283L384 284L383 283M204 284L205 285L204 284M385 284L386 285L385 284M202 285L203 286L202 285M387 285L388 286L387 285M200 286L201 287L200 286M389 286L390 287L389 286M198 287L199 288L198 287M391 287L392 288L391 287M196 288L197 289L196 288M393 288L394 289L393 288M194 289L195 290L194 289M395 289L396 290L395 289M192 290L193 291L192 290M397 290L398 291L397 290z"/>
<path style="fill:#bb6355; stroke:none;" d="M191 291L192 292L191 291M398 291L399 292L398 291z"/>
<path style="fill:#819dfe; stroke:none;" d="M189 292L190 293L189 292M400 292L401 293L400 292M187 293L188 294L187 293M402 293L403 294L402 293M184 295L185 296L184 295M405 295L406 296L405 295M182 296L183 297L182 296M407 296L408 297L407 296z"/>
<path style="fill:#bb6355; stroke:none;" d="M181 297L182 298L181 297M408 297L409 298L408 297z"/>
<path style="fill:#819dfe; stroke:none;" d="M179 298L180 299L179 298M410 298L411 299L410 298z"/>
<path style="fill:#bb6355; stroke:none;" d="M178 299L179 300L178 299M411 299L412 300L411 299z"/>
<path style="fill:#819dfe; stroke:none;" d="M176 300L177 301L176 300M283 300.424C274.664 301.519 266.27 301.933 258 303.665C233.861 308.72 210.836 319.609 191 334.155C174.349 346.366 160.34 361.806 149.003 379C138.571 394.822 130.744 412.615 126.127 431C116.374 469.831 120.621 511.652 137.309 548C146.636 568.317 160.301 585.301 176 601C187.159 612.159 198.528 622.573 212 630.936C245.709 651.861 286.635 660.887 326 655.711C351.301 652.384 376.588 643.633 398 629.656C449.743 595.879 482.175 535.27 477.91 473C472.551 394.744 413.746 325.343 338 305.623C320.584 301.088 301.045 298.055 283 300.424M413 300L414 301L413 300z"/>
<path style="fill:#bb6355; stroke:none;" d="M175 301L176 302L175 301M414 301L415 302L414 301z"/>
<path style="fill:#819dfe; stroke:none;" d="M173 302L174 303L173 302M172 303L173 304L172 303M417 303L418 304L417 303M169 305L170 306L169 305M420 305L421 306L420 305M168 306L169 307L168 306M421 306L422 307L421 306M165 308L166 309L165 308M164 309L165 310L164 309M425 309L426 310L425 309z"/>
<path style="fill:#bb6355; stroke:none;" d="M163 310L164 311L163 310M426 310L427 311L426 310z"/>
<path style="fill:#819dfe; stroke:none;" d="M160 312L161 313L160 312M159 313L160 314L159 313M430 313L431 314L430 313M158 314L159 315L158 314M431 314L432 315L431 314z"/>
<path style="fill:#bb6355; stroke:none;" d="M157 315L158 316L157 315M432 315L433 316L432 315z"/>
<path style="fill:#819dfe; stroke:none;" d="M152 319L153 320L152 319M151 320L152 321L151 320M150 321L151 322L150 321M439 321L440 322L439 321M149 322L150 323L149 322M440 322L441 323L440 322M148 323L149 324L148 323M441 323L442 324L441 323M147 324L148 325L147 324M442 324L443 325L442 324M146 325L147 326L146 325M443 325L444 326L443 325M145 326L146 327L145 326M444 326L445 327L444 326M144 327L145 328L144 327M445 327L446 328L445 327M143 328L144 329L143 328M446 328L447 329L446 328M142 329L143 330L142 329M447 329L448 330L447 329M141 330L142 331L141 330M140 331L141 332L140 331M449 331L450 332L449 331M450 332L451 333L450 332M451 333L452 334L451 333M452 334L453 335L452 334M453 335L454 336L453 335z"/>
<path style="fill:#bb6355; stroke:none;" d="M136 336L137 337L136 336z"/>
<path style="fill:#819dfe; stroke:none;" d="M454 336L455 337L454 336M135 337L136 338L135 337M455 337L456 338L455 337M134 338L135 339L134 338M456 338L457 339L456 338M133 339L134 340L133 339M457 339L458 340L457 339M458 340L459 341L458 340z"/>
<path style="fill:#bb6355; stroke:none;" d="M131 342L132 343L131 342z"/>
<path style="fill:#819dfe; stroke:none;" d="M130 343L131 344L130 343M129 344L130 345L129 344z"/>
<path style="fill:#bb6355; stroke:none;" d="M463 346L464 347L463 346z"/>
<path style="fill:#819dfe; stroke:none;" d="M127 347L128 348L127 347M464 347L465 348L464 347M126 348L127 349L126 348M465 348L466 349L465 348M124 351L125 352L124 351z"/>
<path style="fill:#bb6355; stroke:none;" d="M468 352L469 353L468 352z"/>
<path style="fill:#819dfe; stroke:none;" d="M469 353L470 354L469 353z"/>
<path style="fill:#bb6355; stroke:none;" d="M122 354L123 355L122 354z"/>
<path style="fill:#819dfe; stroke:none;" d="M121 355L122 356L121 355z"/>
<path style="fill:#bb6355; stroke:none;" d="M120 357L121 358L120 357z"/>
<path style="fill:#819dfe; stroke:none;" d="M472 357L473 358L472 357M119 358L120 359L119 358M473 358L474 359L473 358z"/>
<path style="fill:#bb6355; stroke:none;" d="M118 360L119 361L118 360z"/>
<path style="fill:#819dfe; stroke:none;" d="M117 361L118 362L117 361z"/>
<path style="fill:#424242; stroke:none;" d="M286 361.464C263.847 365.343 243.862 372.545 226 386.665C214.436 395.807 204.754 407.2 197.427 420C171.499 465.298 179.081 524.741 216.17 561.83C231.589 577.25 251.853 588.168 273 593.251C289.177 597.139 306.684 596.755 323 593.69C339.049 590.674 354.848 583.755 368 574.115C401.147 549.82 421.261 508.418 416.826 467C411.143 413.918 370.36 371.366 318 362.565C307.815 360.853 296.289 359.662 286 361.464z"/>
<path style="fill:#819dfe; stroke:none;" d="M475 361L476 362L475 361M116 363L117 364L116 363z"/>
<path style="fill:#bb6355; stroke:none;" d="M477 364L478 365L477 364z"/>
<path style="fill:#819dfe; stroke:none;" d="M478 365L479 366L478 365M114 366L115 367L114 366M113 368L114 369L113 368M480 368L481 369L480 368z"/>
<path style="fill:#bb6355; stroke:none;" d="M112 370L113 371L112 370M481 370L482 371L481 370z"/>
<path style="fill:#819dfe; stroke:none;" d="M111 371L112 372L111 371M482 371L483 372L482 371M110 373L111 374L110 373M483 373L484 374L483 373M109 375L110 376L109 375M485 376L486 377L485 376M108 377L109 378L108 377M486 378L487 379L486 378M107 379L108 380L107 379z"/>
<path style="fill:#bb6355; stroke:none;" d="M287.667 380.333C287.222 380.778 288.278 380.722 288.333 380.667C288.778 380.222 287.722 380.278 287.667 380.333z"/>
<path style="fill:#ffd921; stroke:none;" d="M289 380.439C271.264 383.202 254.492 388.928 240 399.9C230.983 406.726 222.778 415.382 216.814 425C208.218 438.863 202.237 454.628 201.09 471C197.83 517.503 228.576 560.481 273 573.561C286.338 577.488 300.355 577.532 314 575.572C328.39 573.505 341.75 568.365 354 560.564C363.201 554.705 371.523 546.688 378.1 538C410.376 495.368 401.587 432.141 359 399.9C348.353 391.839 335.941 386.248 323 383.13C312.309 380.555 299.953 378.733 289 380.439z"/>
<path style="fill:#bb6355; stroke:none;" d="M306 380C307.506 380.683 308.315 380.826 310 381C308.494 380.317 307.685 380.174 306 380M487 380L488 381L487 380z"/>
<path style="fill:#819dfe; stroke:none;" d="M106 381L107 382L106 381z"/>
<path style="fill:#bb6355; stroke:none;" d="M281 381C282.248 381.685 282.548 381.749 284 382C282.752 381.315 282.452 381.251 281 381M314 381C315.248 381.685 315.548 381.749 317 382C315.752 381.315 315.452 381.251 314 381z"/>
<path style="fill:#819dfe; stroke:none;" d="M488 381L489 382L488 381z"/>
<path style="fill:#bb6355; stroke:none;" d="M320.667 382.333C320.222 382.778 321.278 382.722 321.333 382.667C321.778 382.222 320.722 382.278 320.667 382.333z"/>
<path style="fill:#819dfe; stroke:none;" d="M105 383L106 384L105 383z"/>
<path style="fill:#bb6355; stroke:none;" d="M324.667 383.333C324.222 383.778 325.278 383.722 325.333 383.667C325.778 383.222 324.722 383.278 324.667 383.333z"/>
<path style="fill:#819dfe; stroke:none;" d="M489 383L490 384L489 383z"/>
<path style="fill:#bb6355; stroke:none;" d="M269 384L270 385L269 384M328 384L329 385L328 384z"/>
<path style="fill:#819dfe; stroke:none;" d="M104 385L105 386L104 385z"/>
<path style="fill:#bb6355; stroke:none;" d="M267 385L268 386L267 385M331 385L332 386L331 385z"/>
<path style="fill:#819dfe; stroke:none;" d="M490 385L491 386L490 385z"/>
<path style="fill:#bb6355; stroke:none;" d="M264 386L265 387L264 386M334 386L335 387L334 386z"/>
<path style="fill:#819dfe; stroke:none;" d="M103 387L104 388L103 387z"/>
<path style="fill:#bb6355; stroke:none;" d="M261 387L262 388L261 387M337 387L338 388L337 387z"/>
<path style="fill:#819dfe; stroke:none;" d="M491 387L492 388L491 387z"/>
<path style="fill:#bb6355; stroke:none;" d="M259 388L260 389L259 388M339 388L340 389L339 388M257 389L258 390L257 389M341 389L342 390L341 389z"/>
<path style="fill:#819dfe; stroke:none;" d="M492 389L493 390L492 389z"/>
<path style="fill:#bb6355; stroke:none;" d="M102 390L103 391L102 390M255 390L256 391L255 390M343 390L344 391L343 390M253 391L254 392L253 391M345 391L346 392L345 391z"/>
<path style="fill:#819dfe; stroke:none;" d="M493 391L494 392L493 391M101 392L102 393L101 392z"/>
<path style="fill:#bb6355; stroke:none;" d="M251 392L252 393L251 392M347 392L348 393L347 392z"/>
<path style="fill:#819dfe; stroke:none;" d="M494 393L495 394L494 393M100 394L101 395L100 394z"/>
<path style="fill:#bb6355; stroke:none;" d="M248 394L249 395L248 394M350 394L351 395L350 394M246 395L247 396L246 395M352 395L353 396L352 395z"/>
<path style="fill:#819dfe; stroke:none;" d="M495 395L496 396L495 395M99 397L100 398L99 397z"/>
<path style="fill:#bb6355; stroke:none;" d="M243 397L244 398L243 397M355 397L356 398L355 397z"/>
<path style="fill:#819dfe; stroke:none;" d="M496 397L497 398L496 397M98 399L99 400L98 399z"/>
<path style="fill:#bb6355; stroke:none;" d="M239 400L240 401L239 400M359 400L360 401L359 400M497 400L498 401L497 400z"/>
<path style="fill:#819dfe; stroke:none;" d="M97 402L98 403L97 402M498 402L499 403L498 402z"/>
<path style="fill:#bb6355; stroke:none;" d="M234 404L235 405L234 404M364 404L365 405L364 404z"/>
<path style="fill:#819dfe; stroke:none;" d="M499 404L500 405L499 404M96 405L97 406L96 405z"/>
<path style="fill:#bb6355; stroke:none;" d="M233 405L234 406L233 405M365 405L366 406L365 405M232 406L233 407L232 406M366 406L367 407L366 406M231 407L232 408L231 407M367 407L368 408L367 407z"/>
<path style="fill:#819dfe; stroke:none;" d="M500 407L501 408L500 407M95 408L96 409L95 408M501 409L502 410L501 409z"/>
<path style="fill:#bb6355; stroke:none;" d="M228 410L229 411L228 410M370 410L371 411L370 410z"/>
<path style="fill:#819dfe; stroke:none;" d="M94 411L95 412L94 411z"/>
<path style="fill:#bb6355; stroke:none;" d="M227 411L228 412L227 411M371 411L372 412L371 411M226 412L227 413L226 412M372 412L373 413L372 412z"/>
<path style="fill:#819dfe; stroke:none;" d="M502 412L503 413L502 412z"/>
<path style="fill:#bb6355; stroke:none;" d="M225 413L226 414L225 413M373 413L374 414L373 413z"/>
<path style="fill:#819dfe; stroke:none;" d="M93 414L94 415L93 414z"/>
<path style="fill:#bb6355; stroke:none;" d="M93 415L94 416L93 415z"/>
<path style="fill:#819dfe; stroke:none;" d="M503 415L504 416L503 415M92 418L93 419L92 418z"/>
<path style="fill:#bb6355; stroke:none;" d="M221 418L222 419L221 418M377 418L378 419L377 418z"/>
<path style="fill:#819dfe; stroke:none;" d="M504 418L505 419L504 418M91.3333 421.667C91.2777 421.722 91.2223 422.778 91.6667 422.333C91.7221 422.278 91.7778 421.222 91.3333 421.667M505 421L506 422L505 421z"/>
<path style="fill:#bb6355; stroke:none;" d="M218 422L219 423L218 422M380 422L381 423L380 422M291.667 424.333C291.222 424.778 292.278 424.722 292.333 424.667C292.778 424.222 291.722 424.278 291.667 424.333z"/>
<path style="fill:#424242; stroke:none;" d="M293 424.439C280.127 426.445 267.991 432.229 259.174 442.004C238.309 465.133 241.2 503.125 266 522.32C271.197 526.343 277.655 529.885 284 531.699C293.057 534.289 301.785 534.269 311 532.714C317.685 531.587 324.288 528.741 330 525.123C370.484 499.48 358.222 434.136 311 425.261C305.055 424.143 299.02 423.501 293 424.439z"/>
<path style="fill:#bb6355; stroke:none;" d="M306.667 424.333C306.222 424.778 307.278 424.722 307.333 424.667C307.778 424.222 306.722 424.278 306.667 424.333z"/>
<path style="fill:#819dfe; stroke:none;" d="M506 424L507 425L506 424M90.3333 425.667C90.2776 425.722 90.2223 426.778 90.6667 426.333C90.7222 426.278 90.7778 425.222 90.3333 425.667z"/>
<path style="fill:#bb6355; stroke:none;" d="M216 425L217 426L216 425M286.667 425.333C286.222 425.778 287.278 425.722 287.333 425.667C287.778 425.222 286.722 425.278 286.667 425.333M382 425L383 426L382 425M506 425L507 426L506 425M316 426L317 427L316 426M215 427L216 428L215 427M280 427L281 428L280 427M319 427L320 428L319 427M383 427L384 428L383 427M278 428L279 429L278 428M321 428L322 429L321 428z"/>
<path style="fill:#819dfe; stroke:none;" d="M507 428L508 429L507 428z"/>
<path style="fill:#bb6355; stroke:none;" d="M276 429L277 430L276 429M323 429L324 430L323 429M89.3333 430.667C89.2777 430.722 89.2223 431.778 89.6667 431.333C89.7222 431.278 89.7778 430.222 89.3333 430.667M213 430L214 431L213 430M385 430L386 431L385 430M272 431L273 432L272 431M327 431L328 432L327 431z"/>
<path style="fill:#819dfe; stroke:none;" d="M508.333 431.667C508.278 431.722 508.222 432.778 508.667 432.333C508.722 432.278 508.778 431.222 508.333 431.667z"/>
<path style="fill:#bb6355; stroke:none;" d="M212 432L213 433L212 432M270 432L271 433L270 432M329 432L330 433L329 432M386 432L387 433L386 432z"/>
<path style="fill:#819dfe; stroke:none;" d="M88.3333 434.667C88.2777 434.722 88.2223 435.778 88.6667 435.333C88.7221 435.278 88.7778 434.222 88.3333 434.667z"/>
<path style="fill:#bb6355; stroke:none;" d="M211 434L212 435L211 434M387 434L388 435L387 434M266 435L267 436L266 435M333 435L334 436L333 435z"/>
<path style="fill:#819dfe; stroke:none;" d="M509.333 435.667C509.278 435.722 509.222 436.778 509.667 436.333C509.722 436.278 509.778 435.222 509.333 435.667z"/>
<path style="fill:#bb6355; stroke:none;" d="M210 436L211 437L210 436M388 436L389 437L388 436M209 438L210 439L209 438M389 438L390 439L389 438z"/>
<path style="fill:#819dfe; stroke:none;" d="M87.3333 440.667C87.2777 440.722 87.2223 441.778 87.6667 441.333C87.7221 441.278 87.7778 440.222 87.3333 440.667z"/>
<path style="fill:#bb6355; stroke:none;" d="M208 440L209 441L208 440M390 440L391 441L390 440M510.333 440.667C510.278 440.722 510.222 441.778 510.667 441.333C510.722 441.278 510.778 440.222 510.333 440.667M207 443L208 444L207 443z"/>
<path style="fill:#819dfe; stroke:none;" d="M292 443C293.248 443.685 293.548 443.749 295 444C293.752 443.315 293.452 443.251 292 443z"/>
<path style="fill:#e8ecef; stroke:none;" d="M295 443.465C278.146 446.497 265.284 459.596 264.091 477C262.608 498.634 283.296 518.44 305 514.536C321.854 511.503 334.716 498.404 335.909 481C337.392 459.366 316.704 439.56 295 443.465z"/>
<path style="fill:#819dfe; stroke:none;" d="M305 443C306.248 443.685 306.548 443.749 308 444C306.752 443.315 306.452 443.251 305 443z"/>
<path style="fill:#bb6355; stroke:none;" d="M391 443L392 444L391 443z"/>
<path style="fill:#819dfe; stroke:none;" d="M289.667 444.333C289.222 444.778 290.278 444.722 290.333 444.667C290.778 444.222 289.722 444.278 289.667 444.333M309.667 444.333C309.222 444.778 310.278 444.722 310.333 444.667C310.778 444.222 309.722 444.278 309.667 444.333M511.333 444.667C511.278 444.722 511.222 445.778 511.667 445.333C511.722 445.278 511.778 444.222 511.333 444.667z"/>
<path style="fill:#bb6355; stroke:none;" d="M256 445L257 446L256 445M286 445L287 446L286 445z"/>
<path style="fill:#819dfe; stroke:none;" d="M287 445L288 446L287 445M312 445L313 446L312 445z"/>
<path style="fill:#bb6355; stroke:none;" d="M313 445L314 446L313 445M343 445L344 446L343 445z"/>
<path style="fill:#819dfe; stroke:none;" d="M86 446L86 450C86.7102 448.241 86.7102 447.76 86 446z"/>
<path style="fill:#bb6355; stroke:none;" d="M206 446L207 447L206 446z"/>
<path style="fill:#819dfe; stroke:none;" d="M284 446L285 447L284 446M315 446L316 447L315 446z"/>
<path style="fill:#bb6355; stroke:none;" d="M392 446L393 447L392 446z"/>
<path style="fill:#819dfe; stroke:none;" d="M282 447L283 448L282 447M317 447L318 448L317 447z"/>
<path style="fill:#bb6355; stroke:none;" d="M205 448L206 449L205 448M393 448L394 449L393 448M253 449L254 450L253 449z"/>
<path style="fill:#819dfe; stroke:none;" d="M279 449L280 450L279 449M320 449L321 450L320 449z"/>
<path style="fill:#bb6355; stroke:none;" d="M346 449L347 450L346 449z"/>
<path style="fill:#819dfe; stroke:none;" d="M512.333 450.667C512.278 450.722 512.222 451.778 512.667 451.333C512.722 451.278 512.778 450.222 512.333 450.667z"/>
<path style="fill:#bb6355; stroke:none;" d="M252 451L253 452L252 451M347 451L348 452L347 451M275 452L276 453L275 452M324 452L325 453L324 452z"/>
<path style="fill:#819dfe; stroke:none;" d="M274 453L275 454L274 453M325 453L326 454L325 453z"/>
<path style="fill:#bb6355; stroke:none;" d="M273 454L274 455L273 454M326 454L327 455L326 454z"/>
<path style="fill:#819dfe; stroke:none;" d="M85 455L85 461C85.9511 458.715 85.9511 457.285 85 455z"/>
<path style="fill:#bb6355; stroke:none;" d="M250 455L251 456L250 455M349 455L350 456L349 455z"/>
<path style="fill:#819dfe; stroke:none;" d="M513 456L513 459C513.696 457.446 513.696 457.554 513 456z"/>
<path style="fill:#bb6355; stroke:none;" d="M249 457L250 458L249 457M350 457L351 458L350 457z"/>
<path style="fill:#819dfe; stroke:none;" d="M270 458L271 459L270 458M329 458L330 459L329 458z"/>
<path style="fill:#bb6355; stroke:none;" d="M248 459L249 460L248 459M351 459L352 460L351 459M513.333 459.667C513.277 459.722 513.222 460.778 513.667 460.333C513.722 460.278 513.778 459.222 513.333 459.667M202 460L202 463C202.696 461.446 202.696 461.554 202 460M396 460L396 463C396.696 461.446 396.696 461.554 396 460z"/>
<path style="fill:#819dfe; stroke:none;" d="M268 461L269 462L268 461M331 461L332 462L331 461M267 463L268 464L267 463M332 463L333 464L332 463z"/>
<path style="fill:#bb6355; stroke:none;" d="M246.333 465.667C246.278 465.722 246.222 466.778 246.667 466.333C246.722 466.278 246.778 465.222 246.333 465.667M266 465L267 466L266 465M333 465L334 466L333 465M353.333 465.667C353.278 465.722 353.222 466.778 353.667 466.333C353.722 466.278 353.778 465.222 353.333 465.667z"/>
<path style="fill:#819dfe; stroke:none;" d="M514 465L514 470C514.83 467.97 514.83 467.03 514 465z"/>
<path style="fill:#bb6355; stroke:none;" d="M201.333 466.667C201.278 466.722 201.222 467.778 201.667 467.333C201.722 467.278 201.778 466.222 201.333 466.667z"/>
<path style="fill:#819dfe; stroke:none;" d="M266 466L267 467L266 466M333 466L334 467L333 466z"/>
<path style="fill:#bb6355; stroke:none;" d="M397.333 466.667C397.278 466.722 397.222 467.778 397.667 467.333C397.722 467.278 397.778 466.222 397.333 466.667z"/>
<path style="fill:#819dfe; stroke:none;" d="M265.333 468.667C265.278 468.722 265.222 469.778 265.667 469.333C265.722 469.278 265.778 468.222 265.333 468.667M334.333 468.667C334.278 468.722 334.222 469.778 334.667 469.333C334.722 469.278 334.778 468.222 334.333 468.667z"/>
<path style="fill:#bb6355; stroke:none;" d="M245.333 470.667C245.278 470.722 245.222 471.778 245.667 471.333C245.722 471.278 245.778 470.222 245.333 470.667M354.333 470.667C354.278 470.722 354.222 471.778 354.667 471.333C354.722 471.278 354.778 470.222 354.333 470.667z"/>
<path style="fill:#819dfe; stroke:none;" d="M264 471L264 474C264.696 472.446 264.696 472.554 264 471M335 471L335 474C335.696 472.446 335.696 472.554 335 471z"/>
<path style="fill:#bb6355; stroke:none;" d="M201 482L201 490C202.161 487.23 202.161 484.77 201 482M397 482L397 489C398.059 486.466 398.059 484.534 397 482z"/>
<path style="fill:#819dfe; stroke:none;" d="M264 484L264 487C264.696 485.446 264.696 485.554 264 484M335 484L335 487C335.696 485.446 335.696 485.554 335 484M85 485L85 491C85.9511 488.715 85.9511 487.285 85 485z"/>
<path style="fill:#bb6355; stroke:none;" d="M245.333 485.667C245.278 485.722 245.222 486.778 245.667 486.333C245.722 486.278 245.778 485.222 245.333 485.667M354.333 485.667C354.278 485.722 354.222 486.778 354.667 486.333C354.722 486.278 354.778 485.222 354.333 485.667z"/>
<path style="fill:#819dfe; stroke:none;" d="M265.333 488.667C265.278 488.722 265.222 489.778 265.667 489.333C265.722 489.278 265.778 488.222 265.333 488.667M334.333 488.667C334.278 488.722 334.222 489.778 334.667 489.333C334.722 489.278 334.778 488.222 334.333 488.667M266 491L267 492L266 491M333 491L334 492L333 491z"/>
<path style="fill:#bb6355; stroke:none;" d="M266 492L267 493L266 492M333 492L334 493L333 492M202 493L202 496C202.696 494.446 202.696 494.554 202 493M396 493L396 496C396.696 494.446 396.696 494.554 396 493z"/>
<path style="fill:#819dfe; stroke:none;" d="M267 494L268 495L267 494M332 494L333 495L332 494z"/>
<path style="fill:#bb6355; stroke:none;" d="M247 495L248 496L247 495M352 495L353 496L352 495M86 496L86 499C86.6961 497.446 86.6961 497.554 86 496z"/>
<path style="fill:#819dfe; stroke:none;" d="M268 496L269 497L268 496M331 496L332 497L331 496M514 496L514 500C514.71 498.24 514.71 497.759 514 496z"/>
<path style="fill:#bb6355; stroke:none;" d="M248 498L249 499L248 498M351 498L352 499L351 498z"/>
<path style="fill:#819dfe; stroke:none;" d="M86.3333 499.667C86.2777 499.722 86.2223 500.778 86.6667 500.333C86.7221 500.278 86.7778 499.222 86.3333 499.667z"/>
<path style="fill:#bb6355; stroke:none;" d="M203.333 499.667C203.278 499.722 203.222 500.778 203.667 500.333C203.722 500.278 203.778 499.222 203.333 499.667z"/>
<path style="fill:#819dfe; stroke:none;" d="M270 499L271 500L270 499M329 499L330 500L329 499z"/>
<path style="fill:#bb6355; stroke:none;" d="M395.333 499.667C395.278 499.722 395.222 500.778 395.667 500.333C395.722 500.278 395.778 499.222 395.333 499.667M249 500L250 501L249 500M350 500L351 501L350 500M250 502L251 503L250 502M349 502L350 503L349 502M204.333 503.667C204.278 503.722 204.222 504.778 204.667 504.333C204.722 504.278 204.778 503.222 204.333 503.667M273 503L274 504L273 503M326 503L327 504L326 503M394.333 503.667C394.278 503.722 394.222 504.778 394.667 504.333C394.722 504.278 394.778 503.222 394.333 503.667M87 504L87 507C87.6961 505.446 87.6961 505.554 87 504z"/>
<path style="fill:#819dfe; stroke:none;" d="M274 504L275 505L274 504M325 504L326 505L325 504z"/>
<path style="fill:#bb6355; stroke:none;" d="M275 505L276 506L275 505M324 505L325 506L324 505M252 506L253 507L252 506M347 506L348 507L347 506M513.333 506.667C513.277 506.722 513.222 507.778 513.667 507.333C513.722 507.278 513.778 506.222 513.333 506.667M205 507L206 508L205 507M393 507L394 508L393 507M253 508L254 509L253 508z"/>
<path style="fill:#819dfe; stroke:none;" d="M279 508L280 509L279 508M320 508L321 509L320 508z"/>
<path style="fill:#bb6355; stroke:none;" d="M346 508L347 509L346 508z"/>
<path style="fill:#819dfe; stroke:none;" d="M513.333 508.667C513.278 508.722 513.222 509.778 513.667 509.333C513.722 509.278 513.778 508.222 513.333 508.667M88 510L88 514C88.7102 512.24 88.7102 511.76 88 510z"/>
<path style="fill:#bb6355; stroke:none;" d="M206 510L207 511L206 510z"/>
<path style="fill:#819dfe; stroke:none;" d="M282 510L283 511L282 510M317 510L318 511L317 510z"/>
<path style="fill:#bb6355; stroke:none;" d="M392 510L393 511L392 510z"/>
<path style="fill:#819dfe; stroke:none;" d="M284 511L285 512L284 511M315 511L316 512L315 511z"/>
<path style="fill:#bb6355; stroke:none;" d="M256 512L257 513L256 512M286 512L287 513L286 512z"/>
<path style="fill:#819dfe; stroke:none;" d="M287 512L288 513L287 512M312 512L313 513L312 512z"/>
<path style="fill:#bb6355; stroke:none;" d="M313 512L314 513L313 512M343 512L344 513L343 512M207 513L208 514L207 513z"/>
<path style="fill:#819dfe; stroke:none;" d="M289.667 513.333C289.222 513.778 290.278 513.722 290.333 513.667C290.778 513.222 289.722 513.278 289.667 513.333M309.667 513.333C309.222 513.778 310.278 513.722 310.333 513.667C310.778 513.222 309.722 513.278 309.667 513.333z"/>
<path style="fill:#bb6355; stroke:none;" d="M391 513L392 514L391 513z"/>
<path style="fill:#819dfe; stroke:none;" d="M292 514C293.248 514.685 293.548 514.749 295 515C293.752 514.315 293.452 514.251 292 514M305 514C306.248 514.685 306.548 514.749 308 515C306.752 514.315 306.452 514.251 305 514z"/>
<path style="fill:#bb6355; stroke:none;" d="M512 514L512 517C512.696 515.446 512.696 515.554 512 514z"/>
<path style="fill:#819dfe; stroke:none;" d="M89.3333 516.667C89.2777 516.722 89.2222 517.778 89.6667 517.333C89.7221 517.278 89.7778 516.222 89.3333 516.667z"/>
<path style="fill:#bb6355; stroke:none;" d="M208 516L209 517L208 516M390 516L391 517L390 516M209 518L210 519L209 518M389 518L390 519L389 518z"/>
<path style="fill:#819dfe; stroke:none;" d="M90.3333 520.667C90.2777 520.722 90.2223 521.778 90.6667 521.333C90.7222 521.278 90.7778 520.222 90.3333 520.667z"/>
<path style="fill:#bb6355; stroke:none;" d="M210 520L211 521L210 520M388 520L389 521L388 520z"/>
<path style="fill:#819dfe; stroke:none;" d="M511 520L511 523C511.696 521.446 511.696 521.554 511 520z"/>
<path style="fill:#bb6355; stroke:none;" d="M211 522L212 523L211 522M266 522L267 523L266 522M333 522L334 523L333 522M387 522L388 523L387 522M212 524L213 525L212 524M386 524L387 525L386 524z"/>
<path style="fill:#819dfe; stroke:none;" d="M91.3333 525.667C91.2777 525.722 91.2223 526.778 91.6667 526.333C91.7221 526.278 91.7779 525.222 91.3333 525.667z"/>
<path style="fill:#bb6355; stroke:none;" d="M270 525L271 526L270 525M329 525L330 526L329 525M213 526L214 527L213 526M272 526L273 527L272 526M327 526L328 527L327 526M385 526L386 527L385 526z"/>
<path style="fill:#819dfe; stroke:none;" d="M510.333 526.667C510.278 526.722 510.222 527.778 510.667 527.333C510.722 527.278 510.778 526.222 510.333 526.667z"/>
<path style="fill:#bb6355; stroke:none;" d="M276 528L277 529L276 528M323 528L324 529L323 528z"/>
<path style="fill:#819dfe; stroke:none;" d="M92 529L93 530L92 529z"/>
<path style="fill:#bb6355; stroke:none;" d="M215 529L216 530L215 529M278 529L279 530L278 529M321 529L322 530L321 529M383 529L384 530L383 529M280 530L281 531L280 530M319 530L320 531L319 530M216 531L217 532L216 531M316 531L317 532L316 531M382 531L383 532L382 531z"/>
<path style="fill:#819dfe; stroke:none;" d="M509.333 531.667C509.278 531.722 509.222 532.778 509.667 532.333C509.722 532.278 509.778 531.222 509.333 531.667z"/>
<path style="fill:#bb6355; stroke:none;" d="M93 532L94 533L93 532M286.667 532.333C286.222 532.778 287.278 532.722 287.333 532.667C287.778 532.222 286.722 532.278 286.667 532.333z"/>
<path style="fill:#819dfe; stroke:none;" d="M93 533L94 534L93 533z"/>
<path style="fill:#bb6355; stroke:none;" d="M291.667 533.333C291.222 533.778 292.278 533.722 292.333 533.667C292.778 533.222 291.722 533.278 291.667 533.333M305 533C306.248 533.685 306.548 533.749 308 534C306.752 533.315 306.452 533.251 305 533M218 534L219 535L218 534M380 534L381 535L380 534z"/>
<path style="fill:#819dfe; stroke:none;" d="M508.333 535.667C508.278 535.722 508.222 536.778 508.667 536.333C508.722 536.278 508.778 535.222 508.333 535.667M94 536L95 537L94 536z"/>
<path style="fill:#bb6355; stroke:none;" d="M221 538L222 539L221 538M377 538L378 539L377 538z"/>
<path style="fill:#819dfe; stroke:none;" d="M95 539L96 540L95 539M507 539L508 540L507 539M96 542L97 543L96 542z"/>
<path style="fill:#bb6355; stroke:none;" d="M506 542L507 543L506 542M225 543L226 544L225 543M373 543L374 544L373 543z"/>
<path style="fill:#819dfe; stroke:none;" d="M506 543L507 544L506 543z"/>
<path style="fill:#bb6355; stroke:none;" d="M226 544L227 545L226 544M372 544L373 545L372 544z"/>
<path style="fill:#819dfe; stroke:none;" d="M97 545L98 546L97 545z"/>
<path style="fill:#bb6355; stroke:none;" d="M227 545L228 546L227 545M371 545L372 546L371 545M228 546L229 547L228 546M370 546L371 547L370 546z"/>
<path style="fill:#819dfe; stroke:none;" d="M505 546L506 547L505 546M98 548L99 549L98 548z"/>
<path style="fill:#bb6355; stroke:none;" d="M231 549L232 550L231 549M367 549L368 550L367 549z"/>
<path style="fill:#819dfe; stroke:none;" d="M504 549L505 550L504 549M99 550L100 551L99 550z"/>
<path style="fill:#bb6355; stroke:none;" d="M232 550L233 551L232 550M366 550L367 551L366 550M233 551L234 552L233 551M365 551L366 552L365 551M234 552L235 553L234 552M364 552L365 553L364 552z"/>
<path style="fill:#819dfe; stroke:none;" d="M503 552L504 553L503 552M100 553L101 554L100 553M101 555L102 556L101 555M502 555L503 556L502 555z"/>
<path style="fill:#bb6355; stroke:none;" d="M239 556L240 557L239 556M359 556L360 557L359 556M102 557L103 558L102 557z"/>
<path style="fill:#819dfe; stroke:none;" d="M501 558L502 559L501 558z"/>
<path style="fill:#bb6355; stroke:none;" d="M243 559L244 560L243 559M355 559L356 560L355 559z"/>
<path style="fill:#819dfe; stroke:none;" d="M103 560L104 561L103 560M500 560L501 561L500 560z"/>
<path style="fill:#bb6355; stroke:none;" d="M246 561L247 562L246 561M352 561L353 562L352 561z"/>
<path style="fill:#819dfe; stroke:none;" d="M104 562L105 563L104 562z"/>
<path style="fill:#bb6355; stroke:none;" d="M248 562L249 563L248 562M350 562L351 563L350 562z"/>
<path style="fill:#819dfe; stroke:none;" d="M499 563L500 564L499 563M105 564L106 565L105 564z"/>
<path style="fill:#bb6355; stroke:none;" d="M251 564L252 565L251 564M347 564L348 565L347 564M253 565L254 566L253 565M345 565L346 566L345 565z"/>
<path style="fill:#819dfe; stroke:none;" d="M498 565L499 566L498 565M106 566L107 567L106 566z"/>
<path style="fill:#bb6355; stroke:none;" d="M255 566L256 567L255 566M343 566L344 567L343 566M257 567L258 568L257 567M341 567L342 568L341 567M497 567L498 568L497 567z"/>
<path style="fill:#819dfe; stroke:none;" d="M107 568L108 569L107 568z"/>
<path style="fill:#bb6355; stroke:none;" d="M259 568L260 569L259 568M339 568L340 569L339 568M261 569L262 570L261 569M337 569L338 570L337 569z"/>
<path style="fill:#819dfe; stroke:none;" d="M108 570L109 571L108 570z"/>
<path style="fill:#bb6355; stroke:none;" d="M264 570L265 571L264 570M334 570L335 571L334 570z"/>
<path style="fill:#819dfe; stroke:none;" d="M496 570L497 571L496 570z"/>
<path style="fill:#bb6355; stroke:none;" d="M267 571L268 572L267 571M331 571L332 572L331 571z"/>
<path style="fill:#819dfe; stroke:none;" d="M109 572L110 573L109 572z"/>
<path style="fill:#bb6355; stroke:none;" d="M269 572L270 573L269 572M328 572L329 573L328 572z"/>
<path style="fill:#819dfe; stroke:none;" d="M495 572L496 573L495 572z"/>
<path style="fill:#bb6355; stroke:none;" d="M324.667 573.333C324.222 573.778 325.278 573.722 325.333 573.667C325.778 573.222 324.722 573.278 324.667 573.333z"/>
<path style="fill:#819dfe; stroke:none;" d="M110 574L111 575L110 574z"/>
<path style="fill:#bb6355; stroke:none;" d="M320.667 574.333C320.222 574.778 321.278 574.722 321.333 574.667C321.778 574.222 320.722 574.278 320.667 574.333z"/>
<path style="fill:#819dfe; stroke:none;" d="M494 574L495 575L494 574z"/>
<path style="fill:#bb6355; stroke:none;" d="M281 575C282.248 575.685 282.548 575.749 284 576C282.752 575.315 282.452 575.251 281 575M314 575C315.248 575.685 315.549 575.749 317 576C315.752 575.315 315.452 575.251 314 575z"/>
<path style="fill:#819dfe; stroke:none;" d="M111 576L112 577L111 576z"/>
<path style="fill:#bb6355; stroke:none;" d="M287.667 576.333C287.222 576.778 288.278 576.722 288.333 576.667C288.778 576.222 287.722 576.278 287.667 576.333M304 576C306.052 576.874 307.747 576.953 310 577C307.948 576.126 306.253 576.047 304 576z"/>
<path style="fill:#819dfe; stroke:none;" d="M493 576L494 577L493 576z"/>
<path style="fill:#bb6355; stroke:none;" d="M112 577L113 578L112 577z"/>
<path style="fill:#819dfe; stroke:none;" d="M492 578L493 579L492 578M113 579L114 580L113 579M491 580L492 581L491 580M114 581L115 582L114 581M490 582L491 583L490 582M116 584L117 585L116 584M489 584L490 585L489 584M117 586L118 587L117 586M488 586L489 587L488 586z"/>
<path style="fill:#bb6355; stroke:none;" d="M118 587L119 588L118 587M487 587L488 588L487 587z"/>
<path style="fill:#819dfe; stroke:none;" d="M119 589L120 590L119 589M486 589L487 590L486 589M485 591L486 592L485 591M121 592L122 593L121 592z"/>
<path style="fill:#bb6355; stroke:none;" d="M122 593L123 594L122 593z"/>
<path style="fill:#819dfe; stroke:none;" d="M483 594L484 595L483 594M124 596L125 597L124 596M482 596L483 597L482 596z"/>
<path style="fill:#bb6355; stroke:none;" d="M481 597L482 598L481 597z"/>
<path style="fill:#819dfe; stroke:none;" d="M126 599L127 600L126 599M480 599L481 600L480 599M127 600L128 601L127 600z"/>
<path style="fill:#bb6355; stroke:none;" d="M479 600L480 601L479 600z"/>
<path style="fill:#819dfe; stroke:none;" d="M478 602L479 603L478 602z"/>
<path style="fill:#bb6355; stroke:none;" d="M477 603L478 604L477 603z"/>
<path style="fill:#819dfe; stroke:none;" d="M130 604L131 605L130 604z"/>
<path style="fill:#bb6355; stroke:none;" d="M131 605L132 606L131 605z"/>
<path style="fill:#819dfe; stroke:none;" d="M475 606L476 607L475 606M134 609L135 610L134 609M473 609L474 610L473 609M135 610L136 611L135 610M472 610L473 611L472 610z"/>
<path style="fill:#bb6355; stroke:none;" d="M136 611L137 612L136 611z"/>
<path style="fill:#819dfe; stroke:none;" d="M470 613L471 614L470 613M469 614L470 615L469 614z"/>
<path style="fill:#bb6355; stroke:none;" d="M468 615L469 616L468 615z"/>
<path style="fill:#819dfe; stroke:none;" d="M141 617L142 618L141 617M142 618L143 619L142 618M466 618L467 619L466 618M143 619L144 620L143 619M465 619L466 620L465 619M144 620L145 621L144 620M464 620L465 621L464 620M145 621L146 622L145 621z"/>
<path style="fill:#bb6355; stroke:none;" d="M463 621L464 622L463 621z"/>
<path style="fill:#819dfe; stroke:none;" d="M146 622L147 623L146 622M147 623L148 624L147 623M148 624L149 625L148 624M149 625L150 626L149 625M150 626L151 627L150 626M151 627L152 628L151 627M458 627L459 628L458 627M152 628L153 629L152 628M457 628L458 629L457 628M153 629L154 630L153 629M456 629L457 630L456 629M154 630L155 631L154 630M455 630L456 631L455 630M155 631L156 632L155 631M454 631L455 632L454 631M156 632L157 633L156 632M453 632L454 633L453 632M157 633L158 634L157 633M452 633L453 634L452 633M158 634L159 635L158 634M451 634L452 635L451 634M159 635L160 636L159 635M450 635L451 636L450 635M160 636L161 637L160 636M449 636L450 637L449 636M161 637L162 638L161 637M448 637L449 638L448 637z"/>
<path style="fill:#bb6355; stroke:none;" d="M167 642L168 643L167 642M442 642L443 643L442 642z"/>
<path style="fill:#819dfe; stroke:none;" d="M168 643L169 644L168 643M441 643L442 644L441 643M169 644L170 645L169 644M440 644L441 645L440 644M439 645L440 646L439 645z"/>
<path style="fill:#bb6355; stroke:none;" d="M173 647L174 648L173 647M436 647L437 648L436 647z"/>
<path style="fill:#819dfe; stroke:none;" d="M174 648L175 649L174 648M435 648L436 649L435 648M434 649L435 650L434 649M178 651L179 652L178 651M431 651L432 652L431 651M179 652L180 653L179 652M430 652L431 653L430 652M182 654L183 655L182 654M427 654L428 655L427 654z"/>
<path style="fill:#bb6355; stroke:none;" d="M185 656L186 657L185 656M424 656L425 657L424 656z"/>
<path style="fill:#819dfe; stroke:none;" d="M186 657L187 658L186 657M423 657L424 658L423 657z"/>
<path style="fill:#bb6355; stroke:none;" d="M188 658L189 659L188 658M421 658L422 659L421 658z"/>
<path style="fill:#819dfe; stroke:none;" d="M189 659L190 660L189 659M420 659L421 660L420 659z"/>
<path style="fill:#bb6355; stroke:none;" d="M191 660L192 661L191 660M418 660L419 661L418 660z"/>
<path style="fill:#819dfe; stroke:none;" d="M192 661L193 662L192 661M417 661L418 662L417 661M194 662L195 663L194 662M415 662L416 663L415 662M197 664L198 665L197 664M412 664L413 665L412 664M199 665L200 666L199 665M410 665L411 666L410 665z"/>
<path style="fill:#bb6355; stroke:none;" d="M201 666L202 667L201 666M408 666L409 667L408 666z"/>
<path style="fill:#819dfe; stroke:none;" d="M202 667L203 668L202 667M407 667L408 668L407 667M204 668L205 669L204 668M405 668L406 669L405 668M206 669L207 670L206 669M403 669L404 670L403 669M208 670L209 671L208 670M401 670L402 671L401 670M210 671L211 672L210 671M399 671L400 672L399 671M212 672L213 673L212 672M397 672L398 673L397 672M214 673L215 674L214 673M395 673L396 674L395 673M216 674L217 675L216 674M393 674L394 675L393 674M218 675L219 676L218 675M391 675L392 676L391 675z"/>
<path style="fill:#bb6355; stroke:none;" d="M221 676L222 677L221 676M388 676L389 677L388 676z"/>
<path style="fill:#819dfe; stroke:none;" d="M223 677L224 678L223 677M386 677L387 678L386 677M225 678L226 679L225 678M384 678L385 679L384 678M228 679L229 680L228 679M381 679L382 680L381 679M230 680L231 681L230 680M379 680L380 681L379 680M233 681L234 682L233 681M376 681L377 682L376 681M236 682L237 683L236 682M373 682L374 683L373 682M239 683L240 684L239 683M370 683L371 684L370 683M242 684L243 685L242 684M367 684L368 685L367 684M245 685L246 686L245 685z"/>
<path style="fill:#bb6355; stroke:none;" d="M246 685L247 686L246 685M363 685L364 686L363 685z"/>
<path style="fill:#819dfe; stroke:none;" d="M364 685L365 686L364 685M249 686L250 687L249 686M360 686L361 687L360 686M252.667 687.333C252.222 687.778 253.278 687.722 253.333 687.667C253.778 687.222 252.722 687.278 252.667 687.333M356.667 687.333C356.222 687.778 357.278 687.722 357.333 687.667C357.778 687.222 356.722 687.278 356.667 687.333M256.667 688.333C256.222 688.778 257.278 688.722 257.333 688.667C257.778 688.222 256.722 688.278 256.667 688.333M352.667 688.333C352.222 688.778 353.278 688.722 353.333 688.667C353.778 688.222 352.722 688.278 352.667 688.333z"/>
<path style="fill:#bb6355; stroke:none;" d="M261.667 689.333C261.222 689.778 262.278 689.722 262.333 689.667C262.778 689.222 261.722 689.278 261.667 689.333z"/>
<path style="fill:#819dfe; stroke:none;" d="M347.667 689.333C347.222 689.778 348.278 689.722 348.333 689.667C348.778 689.222 347.722 689.278 347.667 689.333M265 690C266.248 690.685 266.548 690.749 268 691C266.752 690.315 266.452 690.251 265 690M341 690C342.248 690.685 342.548 690.749 344 691C342.752 690.315 342.452 690.251 341 690M271.667 691.333C271.222 691.778 272.278 691.722 272.333 691.667C272.778 691.222 271.722 691.278 271.667 691.333z"/>
<path style="fill:#bb6355; stroke:none;" d="M335 691C336.248 691.685 336.548 691.749 338 692C336.752 691.315 336.452 691.251 335 691z"/>
<path style="fill:#819dfe; stroke:none;" d="M277 692C278.248 692.685 278.548 692.749 280 693C278.752 692.315 278.452 692.251 277 692z"/>
<path style="fill:#bb6355; stroke:none;" d="M280.667 692.333C280.222 692.778 281.278 692.722 281.333 692.667C281.778 692.222 280.722 692.278 280.667 692.333M327.667 692.333C327.222 692.778 328.278 692.722 328.333 692.667C328.778 692.222 327.722 692.278 327.667 692.333z"/>
<path style="fill:#819dfe; stroke:none;" d="M329.667 692.333C329.222 692.778 330.278 692.722 330.333 692.667C330.778 692.222 329.722 692.278 329.667 692.333M289.667 693.333C289.222 693.778 290.278 693.722 290.333 693.667C290.778 693.222 289.722 693.278 289.667 693.333z"/>
<path style="fill:#bb6355; stroke:none;" d="M291 693C292.769 693.779 294.036 693.912 296 694C294.231 693.221 292.964 693.088 291 693z"/>
<path style="fill:#819dfe; stroke:none;" d="M317 693C319.052 693.874 320.747 693.953 323 694C320.948 693.126 319.253 693.047 317 693z"/>
</svg>
