<?xml version="1.0" standalone="yes"?>
<svg xmlns="http://www.w3.org/2000/svg" width="600" height="900">
<path style="fill:#5652bf; stroke:none;" d="M0 0L0 900L600 900L600 0L0 0z"/>
<path style="fill:#f0f3f5; stroke:none;" d="M229 338L229 518L266 518L266 478C266 472.291 264.609 464.409 266.603 459C269.373 451.489 278.271 447.189 282 440C288.425 444.743 292.529 452.554 297.14 459C306.388 471.927 315.338 485.068 324.579 498C328.551 503.558 333.158 513.548 339.184 516.972C343.096 519.195 349.652 518 354 518L387 518C383.223 510.408 377.374 503.855 372.424 497C362.019 482.589 351.431 468.308 340.884 454C334.02 444.687 327.297 435.27 320.374 426C317.055 421.555 314.16 416.695 310 413C325.181 397.819 339.829 382.171 355 367C364.283 357.717 375.436 348.738 383 338L351 338C346.405 338 340.369 336.993 336 338.603C327.96 341.568 321.839 352.085 315.996 358C298.929 375.279 283.177 393.823 266 411L266 338L229 338z"/>
</svg>
