<?xml version="1.0" standalone="yes"?>
<svg xmlns="http://www.w3.org/2000/svg" width="600" height="900">
<path style="fill:#5752bf; stroke:none;" d="M0 0L0 900L600 900L600 0L0 0z"/>
<path style="fill:#f0f2f5; stroke:none;" d="M213 338L214 393L213 518L249 518L248 368C250.661 375.797 251.747 384.026 253.745 392C261.049 421.139 265.744 451.02 273.576 480C275.978 488.89 277.629 498.016 279.65 507C280.279 509.791 280.356 515.057 282.742 516.972C285.153 518.908 290.125 518 293 518L319 518C320.474 499.473 326.89 480.018 331.406 462C335.044 447.483 337.428 432.584 340.884 418C344.792 401.511 349.739 384.79 352 368C353.513 373.128 352.143 377.775 352.015 383C351.762 393.321 352 403.676 352 414L352 518L387 518L387 338L348 338C344.29 338 336.815 336.586 333.738 339.028C331.303 340.96 331.05 346.166 330.424 349C328.433 358.017 326.161 366.975 324.21 376C316.91 409.768 307.974 443.212 301 477C296.271 464.395 294.18 450.13 291.332 437C286.909 416.613 281.621 396.404 277.21 376C275.331 367.307 273.089 358.693 271.21 350C270.523 346.824 270.274 341.125 267.436 339.028C264.008 336.495 256.064 338 252 338L213 338z"/>
</svg>
