<?xml version="1.0" standalone="yes"?>
<svg xmlns="http://www.w3.org/2000/svg" width="600" height="900">
<path style="fill:#919191; stroke:none;" d="M0 0L0 900L600 900L600 0L0 0z"/>
<path style="fill:#272828; stroke:none;" d="M286 333.439C264.288 336.822 246.461 345.195 232.68 363C220.377 378.894 215.854 399.313 214.961 419C213.53 450.513 219.256 482.732 244 504.826C264.285 522.939 294.197 525.619 320 521.576C327.568 520.39 335.106 518.246 342 514.89C378.398 497.176 389.777 453.277 386.17 416C384.813 401.984 382.814 387.649 376.11 375C358.708 342.164 321.952 327.838 286 333.439z"/>
<path style="fill:#919191; stroke:none;" d="M294 364.439C262.515 369.357 252 398.837 252 427C252 454.677 261.365 485.84 293 490.421C297.877 491.127 303.1 491.4 308 490.7C344.66 485.462 352.032 443.513 348.285 413C347.289 404.89 345.739 397.401 342.029 390C333.163 372.31 313.877 361.334 294 364.439z"/>
</svg>
