<?xml version="1.0" standalone="yes"?>
<svg xmlns="http://www.w3.org/2000/svg" width="600" height="900">
<path style="fill:#5652bf; stroke:none;" d="M0 0L0 900L600 900L600 0L0 0z"/>
<path style="fill:#f1f3f6; stroke:none;" d="M139 338L139 518L176 518L176 447C189.896 447 204.204 446.021 218 447.715C224.347 448.495 230.903 448.709 235.945 453.225C243.056 459.593 242.657 469.282 243.039 478C243.633 491.526 245.67 504.637 247 518L289 518C288.508 511.464 283.018 507.498 282.185 501C279.987 483.849 285.388 461.269 275.811 446C271.433 439.02 264.454 436.513 259 431C271.46 428.778 279.804 417.518 283.279 406C289.702 384.704 284.296 360.395 265 347.36C250.63 337.652 232.655 338 216 338L139 338M320 338L320 518L394 518C410.302 518 428.554 518.382 443 509.532C473.528 490.831 479.839 435.461 441 422C446.946 417.417 453.034 413.725 456.826 407C470.027 383.584 459.414 353.072 435 342.877C420.809 336.95 405.011 338 390 338L320 338z"/>
<path style="fill:#5652bf; stroke:none;" d="M176 369L176 418L215 418C222.868 418 232.08 418.037 238.996 413.786C252.185 405.68 251.525 380.395 237.985 372.916C230.808 368.951 220.993 369.001 213 369L176 369M356 369L356 409L392 409C399.963 409 408.543 409.384 416 406.03C427.068 401.052 430.307 382.89 420.671 374.803C415.776 370.695 409.009 370.375 403 369.576C387.702 367.541 371.429 369 356 369M356 439L356 487L393 487C401.571 487 411.195 487.327 418.985 483.081C432.801 475.55 434.576 451.684 420.996 443.144C414.024 438.76 404.91 439 397 439L356 439z"/>
</svg>
