<?xml version="1.0" standalone="yes"?>
<svg xmlns="http://www.w3.org/2000/svg" width="600" height="900">
<path style="fill:#83d42d; stroke:none;" d="M0 0L0 900L600 900L600 0L0 0z"/>
<path style="fill:#272827; stroke:none;" d="M226 462C226.399 471.288 228.14 481.651 232.373 490C247.644 520.115 287.952 525.932 318 521.579C339.832 518.417 363.084 507.633 370.572 485C372.611 478.836 373.929 472.514 373.996 466C374.05 460.731 373.644 455.096 372.215 450C363.882 420.27 329.5 416.324 304 410.13C291.222 407.026 269.147 404.97 264.649 390C260.858 377.382 274.393 367.579 285 365.04C304.9 360.277 330.134 369.183 332 392L368 392C367.982 385.616 367.249 379.097 365.251 373C354.39 339.856 315.972 330.139 285 333.845C264.641 336.281 245.568 343.897 235.324 363C231.415 370.29 230.013 378.816 230 387C229.988 394.768 230 401.608 232.695 409C242.894 436.975 278.977 440.185 304 446.116C314.119 448.514 327.392 450.34 334.196 459.174C341.486 468.639 335.068 481.372 326 486.637C312.673 494.374 290.251 494.349 277 486.637C272.098 483.783 267.692 479.261 265.479 474C264.188 470.93 264.184 465.14 261.411 463.028C258.895 461.11 253.961 462 251 462L226 462z"/>
</svg>
