<?xml version="1.0" standalone="yes"?>
<svg xmlns="http://www.w3.org/2000/svg" width="600" height="900">
<path style="fill:#5652bf; stroke:none;" d="M0 0L0 900L600 900L600 0L0 0z"/>
<path style="fill:#eff2f5; stroke:none;" d="M139 338C143.768 358.608 152.219 379.083 159.308 399C168.851 425.813 177.306 453.016 186.333 480C190.546 492.593 196.002 505.04 199 518L224 518C227.07 518 231.827 518.842 234.49 516.972C237.834 514.624 238.778 507.667 240 504C243.679 492.963 247.654 482.039 251.333 471C261.469 440.592 272.2 410.4 282.333 380C286.865 366.405 293.904 352.191 296 338L269 338C265.868 338 260.37 336.976 257.728 339.028C255.195 340.994 254.682 346.1 253.86 349L247 373C240.561 395.342 233.954 417.64 227.579 440C224.536 450.671 219.906 461.913 219 473L217 473C216.068 461.584 211.257 449.995 208.14 439C201.901 416.988 195.61 394.989 189.291 373L182.421 349C181.582 346.055 181.08 340.972 178.437 339.028C175.675 336.997 170.228 338 167 338L139 338M320 338L320 518L357 518L357 453C382.717 453 414.069 457.765 437 443.532C451.654 434.437 455.96 418.118 457.09 402C458.467 382.349 455.368 361.321 438 349.043C422.261 337.916 403.453 338 385 338L320 338z"/>
<path style="fill:#5652bf; stroke:none;" d="M357 369L357 422L388 422C394.867 422 401.695 422.393 408 419.164C423.414 411.271 425.604 382.31 409.999 373.367C405.369 370.714 400.163 370.389 395 369.718C382.525 368.098 369.573 369 357 369z"/>
</svg>
