<?xml version="1.0" standalone="yes"?>
<svg xmlns="http://www.w3.org/2000/svg" width="600" height="900">
<path style="fill:#ffc731; stroke:none;" d="M0 0L0 900L600 900L600 0L0 0z"/>
<path style="fill:#2a2a2a; stroke:none;" d="M186 338C189.412 354.486 194.962 370.807 199.579 387C207.077 413.3 214.156 439.714 221.709 466C226.57 482.917 233.439 500.594 236 518L272 518C277.631 488.964 283.465 459.984 289.4 431C292.897 413.925 297.613 396.432 299 379C302.074 385.28 302.143 392.217 303.321 399C305.004 408.691 307.098 418.332 309.001 428C313.008 448.36 317.639 468.61 321.46 489C323.245 498.525 326.793 508.302 327 518L364 518C368.011 500.502 373.766 483.298 378.576 466C385.894 439.676 392.93 413.275 400.421 387C405.04 370.799 410.586 354.495 414 338L376 338C369.9 364.686 363.622 391.325 357.5 418C353.75 434.339 348.368 451.252 347 468C341.124 450.783 339.884 431.738 335.765 414C331.833 397.072 328.212 380.054 324.8 363C323.15 354.75 320.685 346.389 320 338L280 338C274.53 367.031 268.788 396.017 263.197 425C260.472 439.126 255.658 453.608 255 468C252.286 461.568 251.866 453.882 250.715 447C249.254 438.276 247.093 429.613 245.113 421C240.66 401.636 235.942 382.357 231.5 363C229.615 354.784 226.687 346.412 226 338L186 338z"/>
</svg>
