<?xml version="1.0" standalone="yes"?>
<svg xmlns="http://www.w3.org/2000/svg" width="600" height="900">
<path style="fill:#8bb654; stroke:none;" d="M0 0L0 900L600 900L600 0L0 0z"/>
<path style="fill:#2a2a2a; stroke:none;" d="M186 338C189.412 354.486 194.962 370.807 199.579 387L221.421 464C224.552 474.981 227.398 486.025 230.552 497C232.528 503.878 235.376 510.848 236 518L272 518C277.631 488.963 283.467 459.973 289.4 431C292.897 413.925 297.613 396.432 299 379C301.464 384.033 301.943 389.54 303 395C304.994 405.303 306.528 415.689 308.46 426C312.276 446.367 316.797 466.688 321.003 487C323.118 497.216 326.171 507.583 327 518L364 518C366.554 500.642 373.488 482.901 378.29 466C385.764 439.696 392.923 413.298 400.421 387C405.04 370.799 410.586 354.495 414 338L376 338C370.748 365.084 364.098 392.266 357.406 419C353.435 434.862 348.335 451.661 347 468C341.283 451.143 340.109 432.329 335.961 415C331.996 398.432 328.595 381.713 325.199 365C323.39 356.098 320.74 347.061 320 338L280 338C274.656 366.361 269.211 394.704 263.551 423C260.608 437.713 255.686 452.997 255 468C252.282 461.559 251.77 453.892 250.704 447C249.354 438.276 247.092 429.595 245.113 421C240.655 401.648 235.943 382.36 231.5 363C229.607 354.752 226.691 346.46 226 338L186 338z"/>
</svg>
