<?xml version="1.0" standalone="yes"?>
<svg xmlns="http://www.w3.org/2000/svg" width="600" height="900">
<path style="fill:#5652bf; stroke:none;" d="M0 0L0 900L600 900L600 0L0 0z"/>
<path style="fill:#f1f3f6; stroke:none;" d="M285 333.425C276.32 334.607 267.959 336.547 260 340.32C223.326 357.707 213.342 398.087 214.961 435C215.962 457.828 221.497 480.464 237.174 498C257.942 521.231 289.523 525.896 319 521.714C326.15 520.7 333.415 518.657 340 515.688C377.612 498.733 388.669 455.672 386.09 418C384.827 399.571 381.561 381.577 370.78 366C351.39 337.985 317.546 328.995 285 333.425M40 338C52.9359 362.585 66.7581 386.812 80.4244 411C85.1128 419.298 89.7177 427.646 94.3056 436C96.7747 440.496 99.949 445.019 101.363 450C103.345 456.985 102 465.782 102 473L102 518L140 518L140 473C140 466.079 138.736 457.7 140.637 451C143.562 440.694 150.961 430.341 156.139 421C164.938 405.126 173.062 388.874 181.861 373C187.989 361.946 196.188 350.045 200 338L157 338C149.286 364.777 130.673 388.159 123 415L121 415C114.34 395.44 103.256 376.595 94.2585 358C91.7822 352.882 89.0832 341.178 83.6096 338.603C79.9619 336.888 73.948 338 70 338L40 338M417 338L417 518L454 518L454 453C479.146 453 510.47 457.759 533 444.073C548.277 434.793 552.912 418.797 554.089 402C555.463 382.409 552.31 361.28 535 349.043C519.39 338.008 500.32 338 482 338L417 338z"/>
<path style="fill:#5652bf; stroke:none;" d="M289 365.468C268.119 369.407 255.62 390.434 252.87 410C248.529 440.881 254.892 485.746 293 490.711C298.173 491.385 303.867 491.292 309 490.385C337.829 485.289 349 457.522 349 431C349 405.928 344.053 376.79 317 367.181C312.606 365.621 308.648 365.008 304 365C299.07 364.992 293.866 364.549 289 365.468M454 369L454 422L484 422C490.774 422 497.67 422.534 504 419.647C519.783 412.449 523.058 383.732 507.996 373.97C503.468 371.035 498.209 370.472 493 369.729C480.262 367.913 466.856 369 454 369z"/>
</svg>
